<svg t="1731661880582" class="icon" viewBox="0 0 1024 1024" version="1.1" xmlns="http://www.w3.org/2000/svg" p-id="1641" width="200" height="200"><path d="M510.976 5.12C231.936 5.12 3.072 233.472 3.072 513.024c0 68.608 12.8 134.656 38.4 193.024L11.264 936.96c-5.12 30.208 20.48 53.248 50.688 50.688l207.872-27.648c71.168 38.4 155.136 60.928 241.152 60.928 279.552 0 507.904-228.352 507.904-507.904S790.528 5.12 510.976 5.12zM257.024 588.8c-43.008 0-75.776-32.768-75.776-75.776s32.768-75.776 75.776-75.776S332.8 470.016 332.8 513.024 300.544 588.8 257.024 588.8z m253.952 0c-43.008 0-75.776-32.768-75.776-75.776s32.768-75.776 75.776-75.776 75.776 32.768 75.776 75.776-32.768 75.776-75.776 75.776z m254.464 0c-43.008 0-75.776-32.768-75.776-75.776s32.768-75.776 75.776-75.776 75.776 32.768 75.776 75.776-32.768 75.776-75.776 75.776z" fill="#4C88FF" p-id="1642"></path></svg>